<svg width="1204" height="252" viewBox="0 0 1204 252" fill="none" xmlns="http://www.w3.org/2000/svg">
<path d="M92.4055 111.196L106.412 97.1891C107.476 96.1254 108.717 95.5935 110.135 95.5935C111.554 95.5935 112.795 96.1254 113.859 97.1891C114.922 98.2529 115.454 99.5224 115.454 100.998C115.454 102.477 114.922 103.749 113.859 104.813L96.1288 122.543C95.065 123.607 93.8239 124.139 92.4055 124.139C90.9872 124.139 89.7461 123.607 88.6823 122.543L79.1081 112.969C78.0443 111.905 77.5124 110.633 77.5124 109.153C77.5124 107.678 78.0443 106.409 79.1081 105.345C80.1719 104.281 81.413 103.749 82.8314 103.749C84.2498 103.749 85.4909 104.281 86.5547 105.345L92.4055 111.196ZM173.076 186.37C171.776 187.671 170.121 188.321 168.112 188.321C166.103 188.321 164.448 187.671 163.148 186.37L123.433 146.655C119.887 149.492 115.809 151.738 111.199 153.393C106.589 155.048 101.684 155.875 96.4834 155.875C83.5997 155.875 72.697 151.414 63.7753 142.493C54.8489 133.566 50.3857 122.661 50.3857 109.777C50.3857 96.8936 54.8489 85.9886 63.7753 77.0622C72.697 68.1405 83.5997 63.6797 96.4834 63.6797C109.367 63.6797 120.272 68.1405 129.199 77.0622C138.12 85.9886 142.581 96.8936 142.581 109.777C142.581 114.978 141.754 119.883 140.099 124.493C138.444 129.103 136.198 133.181 133.362 136.727L173.076 176.442C173.786 177.151 174.289 177.919 174.587 178.747C174.88 179.574 175.027 180.46 175.027 181.406C175.027 182.352 174.88 183.238 174.587 184.066C174.289 184.893 173.786 185.661 173.076 186.37ZM96.4834 141.691C105.348 141.691 112.885 138.59 119.093 132.386C125.296 126.179 128.397 118.642 128.397 109.777C128.397 100.912 125.296 93.376 119.093 87.1682C112.885 80.9651 105.348 77.8636 96.4834 77.8636C87.6185 77.8636 80.0821 80.9651 73.8743 87.1682C67.6712 93.376 64.5696 100.912 64.5696 109.777C64.5696 118.642 67.6712 126.179 73.8743 132.386C80.0821 138.59 87.6185 141.691 96.4834 141.691Z" fill="#B1EA86"/>
<path d="M200.811 170V81.9882H211.469V160.546H252.38V170H200.811ZM286.932 171.547C282.749 171.547 278.953 170.759 275.544 169.183C272.134 167.579 269.427 165.273 267.421 162.265C265.416 159.228 264.413 155.561 264.413 151.263C264.413 147.481 265.158 144.416 266.648 142.067C268.138 139.689 270.129 137.826 272.621 136.48C275.114 135.133 277.864 134.131 280.873 133.472C283.909 132.784 286.961 132.24 290.026 131.839C294.037 131.323 297.289 130.936 299.781 130.678C302.302 130.392 304.136 129.919 305.282 129.26C306.457 128.601 307.044 127.455 307.044 125.822V125.478C307.044 121.238 305.884 117.944 303.563 115.594C301.271 113.245 297.79 112.07 293.12 112.07C288.278 112.07 284.482 113.13 281.732 115.25C278.982 117.371 277.048 119.634 275.93 122.04L266.304 118.602C268.023 114.592 270.315 111.469 273.18 109.234C276.074 106.971 279.225 105.395 282.634 104.507C286.072 103.59 289.453 103.132 292.776 103.132C294.897 103.132 297.332 103.39 300.082 103.905C302.861 104.392 305.54 105.409 308.118 106.956C310.725 108.503 312.889 110.838 314.608 113.961C316.326 117.084 317.186 121.267 317.186 126.51V170H307.044V161.061H306.528C305.841 162.494 304.695 164.027 303.09 165.66C301.486 167.293 299.352 168.682 296.687 169.828C294.023 170.974 290.771 171.547 286.932 171.547ZM288.479 162.436C292.49 162.436 295.871 161.649 298.621 160.073C301.4 158.497 303.491 156.463 304.895 153.971C306.328 151.478 307.044 148.857 307.044 146.106V136.824C306.614 137.339 305.669 137.812 304.208 138.242C302.775 138.643 301.114 139.001 299.223 139.316C297.36 139.603 295.541 139.861 293.765 140.09C292.017 140.29 290.599 140.462 289.51 140.605C286.875 140.949 284.411 141.508 282.119 142.281C279.855 143.026 278.022 144.158 276.618 145.676C275.243 147.166 274.555 149.2 274.555 151.779C274.555 155.303 275.859 157.967 278.466 159.772C281.102 161.548 284.439 162.436 288.479 162.436ZM345.839 130.292V170H335.697V103.991H345.495V114.305H346.355C347.902 110.953 350.251 108.26 353.403 106.226C356.554 104.163 360.622 103.132 365.608 103.132C370.077 103.132 373.988 104.048 377.34 105.882C380.692 107.687 383.299 110.437 385.161 114.133C387.023 117.8 387.954 122.442 387.954 128.057V170H377.812V128.744C377.812 123.559 376.466 119.519 373.773 116.626C371.08 113.703 367.384 112.242 362.685 112.242C359.448 112.242 356.554 112.944 354.004 114.348C351.483 115.752 349.492 117.8 348.031 120.493C346.57 123.186 345.839 126.452 345.839 130.292ZM431.412 171.375C425.912 171.375 421.055 169.986 416.844 167.207C412.632 164.399 409.338 160.445 406.96 155.346C404.582 150.217 403.393 144.158 403.393 137.167C403.393 130.234 404.582 124.218 406.96 119.118C409.338 114.019 412.647 110.079 416.887 107.3C421.127 104.521 426.026 103.132 431.584 103.132C435.882 103.132 439.277 103.848 441.769 105.28C444.29 106.684 446.21 108.289 447.528 110.094C448.874 111.87 449.92 113.331 450.665 114.477H451.524V81.9882H461.666V170H451.868V159.858H450.665C449.92 161.061 448.86 162.58 447.485 164.413C446.11 166.218 444.147 167.837 441.597 169.269C439.047 170.673 435.652 171.375 431.412 171.375ZM432.787 162.265C436.856 162.265 440.294 161.205 443.101 159.084C445.909 156.936 448.043 153.971 449.505 150.189C450.966 146.378 451.696 141.981 451.696 136.996C451.696 132.068 450.98 127.756 449.547 124.06C448.115 120.336 445.995 117.442 443.187 115.379C440.38 113.288 436.913 112.242 432.787 112.242C428.49 112.242 424.909 113.345 422.044 115.551C419.207 117.729 417.073 120.694 415.641 124.447C414.237 128.171 413.535 132.354 413.535 136.996C413.535 141.694 414.251 145.963 415.684 149.802C417.145 153.612 419.293 156.649 422.13 158.913C424.995 161.147 428.547 162.265 432.787 162.265Z" fill="black"/>
<path d="M495.917 81.9882L517.189 148.857H518.006L539.321 81.9882H559.949L529.609 170H505.629L475.246 81.9882H495.917ZM592.835 171.289C586.045 171.289 580.201 169.914 575.302 167.164C570.431 164.385 566.678 160.46 564.042 155.389C561.407 150.289 560.089 144.258 560.089 137.296C560.089 130.506 561.407 124.547 564.042 119.419C566.678 114.291 570.388 110.294 575.173 107.429C579.986 104.564 585.63 103.132 592.105 103.132C596.459 103.132 600.513 103.834 604.266 105.237C608.048 106.613 611.343 108.69 614.151 111.469C616.987 114.248 619.193 117.743 620.769 121.954C622.344 126.137 623.132 131.036 623.132 136.652V141.68H567.394V130.335H605.9C605.9 127.699 605.327 125.364 604.181 123.33C603.035 121.296 601.445 119.705 599.41 118.56C597.405 117.385 595.07 116.798 592.406 116.798C589.627 116.798 587.163 117.442 585.014 118.731C582.894 119.992 581.232 121.697 580.029 123.845C578.826 125.965 578.21 128.329 578.181 130.936V141.723C578.181 144.989 578.783 147.811 579.986 150.189C581.218 152.567 582.951 154.4 585.186 155.689C587.42 156.979 590.071 157.623 593.136 157.623C595.17 157.623 597.032 157.337 598.723 156.764C600.413 156.191 601.86 155.331 603.063 154.185C604.266 153.039 605.183 151.636 605.814 149.974L622.746 151.091C621.886 155.159 620.124 158.712 617.46 161.749C614.824 164.757 611.415 167.106 607.232 168.797C603.078 170.458 598.279 171.289 592.835 171.289ZM635.079 170V103.991H652.828V115.508H653.515C654.719 111.411 656.738 108.317 659.575 106.226C662.411 104.106 665.677 103.046 669.373 103.046C670.29 103.046 671.278 103.103 672.338 103.218C673.398 103.332 674.329 103.49 675.131 103.69V119.935C674.272 119.677 673.083 119.448 671.565 119.247C670.046 119.047 668.657 118.946 667.396 118.946C664.703 118.946 662.296 119.534 660.176 120.708C658.085 121.854 656.423 123.459 655.191 125.521C653.988 127.584 653.386 129.962 653.386 132.655V170H635.079ZM684.597 170V103.991H702.904V170H684.597ZM693.793 95.4822C691.071 95.4822 688.737 94.5797 686.788 92.7748C684.869 90.9412 683.909 88.7495 683.909 86.1997C683.909 83.6785 684.869 81.5155 686.788 79.7105C688.737 77.877 691.071 76.9602 693.793 76.9602C696.515 76.9602 698.836 77.877 700.755 79.7105C702.703 81.5155 703.677 83.6785 703.677 86.1997C703.677 88.7495 702.703 90.9412 700.755 92.7748C698.836 94.5797 696.515 95.4822 693.793 95.4822ZM753.066 103.991V117.743H712.326V103.991H753.066ZM721.651 170V99.221C721.651 94.4365 722.582 90.4685 724.445 87.317C726.336 84.1656 728.914 81.802 732.18 80.2262C735.446 78.6505 739.156 77.8626 743.311 77.8626C746.118 77.8626 748.682 78.0775 751.003 78.5073C753.352 78.937 755.1 79.3238 756.246 79.6676L752.98 93.4194C752.264 93.1902 751.375 92.9753 750.315 92.7748C749.284 92.5742 748.224 92.474 747.135 92.474C744.442 92.474 742.566 93.1043 741.506 94.3649C740.446 95.5968 739.916 97.3301 739.916 99.5648V170H721.651ZM775.552 194.753C773.232 194.753 771.054 194.567 769.02 194.195C767.015 193.851 765.353 193.407 764.035 192.862L768.161 179.197C770.309 179.855 772.243 180.214 773.962 180.271C775.71 180.328 777.214 179.927 778.474 179.068C779.764 178.208 780.809 176.747 781.612 174.684L782.686 171.891L759.007 103.991H778.26L791.925 152.466H792.613L806.408 103.991H825.789L800.134 177.134C798.902 180.686 797.226 183.78 795.106 186.416C793.014 189.081 790.364 191.129 787.155 192.562C783.947 194.023 780.079 194.753 775.552 194.753Z" fill="#479101"/>
<path d="M843.281 119.754C843.281 94.6908 863.599 74.373 888.662 74.373H1137.92C1146.27 74.373 1153.04 81.1456 1153.04 89.5001V132.246C1153.04 157.309 1132.73 177.627 1107.66 177.627H858.408C850.054 177.627 843.281 170.854 843.281 162.5V119.754Z" fill="#E8DEF8"/>
<path d="M893.003 148.5V104.494H909.505C912.885 104.494 915.722 105.124 918.014 106.385C920.32 107.646 922.06 109.379 923.235 111.585C924.424 113.777 925.019 116.269 925.019 119.062C925.019 121.884 924.424 124.391 923.235 126.583C922.046 128.775 920.291 130.501 917.971 131.761C915.65 133.008 912.792 133.631 909.397 133.631H898.46V127.077H908.323C910.3 127.077 911.918 126.733 913.179 126.046C914.44 125.358 915.371 124.413 915.972 123.209C916.588 122.006 916.896 120.624 916.896 119.062C916.896 117.501 916.588 116.126 915.972 114.937C915.371 113.748 914.432 112.824 913.158 112.165C911.897 111.492 910.271 111.155 908.28 111.155H900.974V148.5H893.003ZM940.505 149.166C938.414 149.166 936.53 148.794 934.854 148.049C933.193 147.29 931.875 146.172 930.901 144.697C929.941 143.221 929.461 141.402 929.461 139.239C929.461 137.377 929.805 135.837 930.492 134.619C931.18 133.402 932.118 132.428 933.307 131.697C934.496 130.966 935.836 130.415 937.325 130.042C938.829 129.656 940.384 129.376 941.988 129.204C943.922 129.004 945.491 128.825 946.694 128.667C947.897 128.495 948.771 128.238 949.315 127.894C949.874 127.536 950.153 126.984 950.153 126.239V126.11C950.153 124.492 949.673 123.238 948.714 122.35C947.754 121.462 946.372 121.018 944.567 121.018C942.661 121.018 941.15 121.433 940.033 122.264C938.93 123.095 938.185 124.076 937.798 125.208L930.535 124.176C931.108 122.171 932.054 120.495 933.372 119.148C934.69 117.788 936.301 116.77 938.206 116.097C940.112 115.41 942.217 115.066 944.524 115.066C946.114 115.066 947.697 115.252 949.272 115.624C950.848 115.997 952.288 116.613 953.591 117.472C954.895 118.318 955.941 119.471 956.728 120.932C957.531 122.393 957.932 124.219 957.932 126.411V148.5H950.454V143.966H950.196C949.724 144.883 949.057 145.742 948.198 146.545C947.353 147.333 946.286 147.97 944.996 148.457C943.721 148.93 942.224 149.166 940.505 149.166ZM942.525 143.45C944.087 143.45 945.44 143.143 946.586 142.527C947.732 141.896 948.613 141.065 949.229 140.034C949.86 139.003 950.175 137.878 950.175 136.661V132.771C949.931 132.972 949.516 133.158 948.928 133.33C948.356 133.502 947.711 133.652 946.995 133.781C946.278 133.91 945.569 134.025 944.867 134.125C944.165 134.225 943.557 134.311 943.041 134.383C941.881 134.54 940.842 134.798 939.925 135.156C939.009 135.515 938.285 136.016 937.755 136.661C937.225 137.291 936.96 138.107 936.96 139.11C936.96 140.543 937.483 141.624 938.529 142.355C939.574 143.085 940.907 143.45 942.525 143.45ZM965.753 148.5V115.496H973.295V120.996H973.639C974.24 119.091 975.272 117.623 976.733 116.591C978.208 115.546 979.892 115.023 981.783 115.023C982.212 115.023 982.692 115.044 983.222 115.087C983.767 115.116 984.218 115.166 984.576 115.238V122.393C984.246 122.278 983.724 122.178 983.007 122.092C982.305 121.992 981.625 121.942 980.966 121.942C979.548 121.942 978.273 122.25 977.141 122.866C976.024 123.467 975.143 124.305 974.498 125.38C973.854 126.454 973.531 127.693 973.531 129.097V148.5H965.753ZM1008 115.496V121.512H989.024V115.496H1008ZM993.708 107.588H1001.49V138.573C1001.49 139.619 1001.64 140.421 1001.96 140.979C1002.29 141.524 1002.72 141.896 1003.25 142.097C1003.78 142.297 1004.37 142.398 1005.01 142.398C1005.5 142.398 1005.94 142.362 1006.34 142.29C1006.76 142.219 1007.07 142.154 1007.29 142.097L1008.6 148.178C1008.18 148.321 1007.59 148.479 1006.82 148.65C1006.06 148.822 1005.12 148.923 1004.02 148.951C1002.07 149.009 1000.32 148.715 998.757 148.07C997.196 147.411 995.957 146.394 995.04 145.019C994.138 143.644 993.694 141.925 993.708 139.862V107.588ZM1022.28 129.161V148.5H1014.5V115.496H1021.94V121.104H1022.32C1023.08 119.256 1024.29 117.788 1025.95 116.699C1027.63 115.61 1029.7 115.066 1032.16 115.066C1034.44 115.066 1036.43 115.553 1038.12 116.527C1039.82 117.501 1041.14 118.912 1042.07 120.76C1043.02 122.608 1043.48 124.85 1043.47 127.485V148.5H1035.69V128.689C1035.69 126.483 1035.12 124.757 1033.97 123.51C1032.84 122.264 1031.27 121.641 1029.26 121.641C1027.9 121.641 1026.69 121.942 1025.63 122.543C1024.59 123.131 1023.76 123.983 1023.16 125.1C1022.57 126.218 1022.28 127.571 1022.28 129.161ZM1065.99 149.145C1062.68 149.145 1059.82 148.457 1057.41 147.082C1055.02 145.692 1053.18 143.73 1051.89 141.194C1050.6 138.645 1049.96 135.643 1049.96 132.191C1049.96 128.796 1050.6 125.817 1051.89 123.252C1053.19 120.674 1055.01 118.669 1057.35 117.236C1059.68 115.789 1062.43 115.066 1065.58 115.066C1067.61 115.066 1069.53 115.395 1071.34 116.054C1073.16 116.699 1074.76 117.702 1076.15 119.062C1077.55 120.423 1078.66 122.157 1079.46 124.262C1080.26 126.354 1080.66 128.846 1080.66 131.74V134.125H1053.61V128.882H1073.21C1073.19 127.392 1072.87 126.067 1072.24 124.907C1071.61 123.732 1070.73 122.808 1069.6 122.135C1068.48 121.462 1067.17 121.125 1065.68 121.125C1064.09 121.125 1062.7 121.512 1061.49 122.286C1060.29 123.045 1059.35 124.047 1058.68 125.294C1058.02 126.526 1057.68 127.879 1057.67 129.355V133.932C1057.67 135.851 1058.02 137.499 1058.72 138.874C1059.42 140.235 1060.41 141.28 1061.67 142.011C1062.93 142.727 1064.4 143.085 1066.09 143.085C1067.22 143.085 1068.25 142.928 1069.17 142.612C1070.08 142.283 1070.88 141.803 1071.55 141.173C1072.22 140.543 1072.73 139.762 1073.08 138.831L1080.34 139.647C1079.88 141.567 1079.01 143.243 1077.72 144.675C1076.44 146.093 1074.81 147.196 1072.82 147.984C1070.83 148.758 1068.55 149.145 1065.99 149.145ZM1087.24 148.5V115.496H1094.78V120.996H1095.13C1095.73 119.091 1096.76 117.623 1098.22 116.591C1099.7 115.546 1101.38 115.023 1103.27 115.023C1103.7 115.023 1104.18 115.044 1104.71 115.087C1105.26 115.116 1105.71 115.166 1106.06 115.238V122.393C1105.74 122.278 1105.21 122.178 1104.5 122.092C1103.79 121.992 1103.11 121.942 1102.45 121.942C1101.04 121.942 1099.76 122.25 1098.63 122.866C1097.51 123.467 1096.63 124.305 1095.99 125.38C1095.34 126.454 1095.02 127.693 1095.02 129.097V148.5H1087.24Z" fill="black"/>
</svg>
